<?xml version="1.0" encoding="UTF-8" ?>
<!DOCTYPE svg PUBLIC "-//W3C//DTD SVG 1.1//EN" "http://www.w3.org/Graphics/SVG/1.1/DTD/svg11.dtd">
<svg width="500pt" height="500pt" viewBox="0 0 500 500" version="1.1" xmlns="http://www.w3.org/2000/svg">
<g id="#322e4fff">
<path fill="#322e4f" opacity="1.00" d=" M 244.33 21.31 C 250.32 19.92 257.06 20.30 262.35 23.68 C 268.58 27.54 272.45 34.67 272.87 41.92 C 273.17 48.24 270.25 54.40 265.84 58.81 C 261.33 63.00 255.03 65.14 248.90 64.75 C 239.06 63.80 230.34 55.83 228.92 45.97 C 226.75 35.35 234.04 24.23 244.33 21.31 Z" />
<path fill="#322e4f" opacity="1.00" d=" M 221.95 73.02 C 224.44 69.03 228.23 66.13 231.74 63.11 C 236.61 67.92 242.83 72.16 249.98 71.80 C 257.65 72.39 264.79 68.49 269.97 63.09 C 273.81 66.87 278.12 70.48 280.56 75.39 C 282.92 81.31 282.11 87.84 281.86 94.04 C 281.34 104.01 279.03 114.53 272.08 122.07 C 264.72 129.16 253.74 130.43 244.02 129.11 C 235.60 127.90 227.78 122.48 224.16 114.71 C 220.92 107.66 219.91 99.83 219.47 92.16 C 219.16 85.74 218.82 78.87 221.95 73.02 M 244.01 80.13 C 245.55 81.68 247.10 83.22 248.66 84.75 C 247.31 85.60 245.97 86.46 244.63 87.32 C 244.26 94.15 244.91 101.00 245.69 107.78 C 246.49 112.33 246.88 117.63 250.95 120.58 C 252.70 118.33 254.33 115.87 254.83 113.01 C 256.56 104.79 256.85 96.35 257.07 87.98 C 255.80 86.89 254.53 85.80 253.26 84.71 C 254.53 83.41 255.79 82.11 257.07 80.81 C 256.50 77.38 253.38 75.63 250.86 73.71 C 248.12 75.32 245.82 77.53 244.01 80.13 Z" />
<path fill="#322e4f" opacity="1.00" d=" M 244.56 150.93 C 244.37 147.12 248.08 144.90 251.36 144.27 C 252.70 145.05 254.09 145.73 255.34 146.66 C 256.98 148.70 256.98 151.48 257.03 153.97 C 257.00 164.90 257.00 175.83 257.00 186.76 C 267.10 196.76 277.18 206.78 287.10 216.96 C 289.73 219.25 288.79 222.88 287.86 225.75 C 285.40 226.53 282.76 227.98 280.17 226.90 C 278.14 225.65 276.57 223.81 274.87 222.17 C 266.86 214.20 258.83 206.25 250.85 198.25 C 244.07 205.03 237.36 211.88 230.49 218.56 C 226.45 222.30 222.97 227.43 216.97 227.91 C 215.46 226.47 213.94 225.03 212.42 223.61 C 212.56 220.89 212.90 217.98 214.99 216.01 C 224.69 206.05 234.69 196.38 244.53 186.54 C 244.52 174.67 244.40 162.80 244.56 150.93 Z" />
<path fill="#322e4f" opacity="1.00" d=" M 165.33 174.57 C 175.93 171.79 187.78 177.93 191.61 188.19 C 194.34 195.64 193.07 204.68 187.66 210.63 C 182.80 216.04 175.20 219.28 167.91 217.89 C 157.91 216.93 149.76 207.86 148.88 198.02 C 147.69 187.53 155.21 177.18 165.33 174.57 Z" />
<path fill="#322e4f" opacity="1.00" d=" M 310.29 184.30 C 315.82 176.21 326.56 172.40 336.02 174.64 C 344.03 175.85 350.76 181.82 353.82 189.20 C 356.44 195.50 358.21 202.40 357.41 209.26 C 354.12 209.74 350.82 210.16 347.52 210.53 C 341.44 217.53 330.99 220.10 322.38 216.69 C 318.75 215.23 316.20 212.05 312.73 210.35 C 309.58 209.63 306.29 209.50 303.23 208.36 C 304.08 200.04 305.32 191.28 310.29 184.30 Z" />
<path fill="#322e4f" opacity="1.00" d=" M 143.21 225.22 C 145.64 221.99 148.78 219.40 151.62 216.55 C 157.16 221.57 164.18 226.05 172.00 225.18 C 179.00 225.09 185.33 221.22 190.09 216.33 C 194.01 219.91 198.36 223.41 200.50 228.43 C 203.05 234.25 202.24 240.78 202.15 246.96 C 201.63 257.02 199.48 267.80 192.46 275.44 C 185.04 283.11 173.43 284.08 163.45 282.41 C 155.95 281.02 148.90 276.54 145.21 269.75 C 140.59 260.92 139.80 250.74 139.52 240.95 C 139.49 235.55 139.97 229.75 143.21 225.22 M 164.19 233.61 C 165.68 235.16 167.18 236.70 168.70 238.22 C 167.36 239.13 166.03 240.03 164.69 240.95 C 164.88 250.54 165.06 260.29 167.67 269.60 C 168.21 271.48 169.79 272.76 170.99 274.22 C 172.40 272.25 174.16 270.38 174.67 267.93 C 176.54 259.76 177.17 251.33 177.18 242.96 C 177.60 240.46 174.96 239.54 173.32 238.38 C 174.69 236.87 176.05 235.34 177.37 233.78 C 175.95 230.84 173.59 228.61 170.77 227.03 C 168.22 228.83 165.98 231.04 164.19 233.61 Z" />
<path fill="#322e4f" opacity="1.00" d=" M 300.75 228.69 C 302.79 223.51 307.47 220.15 311.41 216.49 C 316.73 222.00 324.20 225.92 332.04 225.15 C 338.82 224.95 345.05 221.42 349.58 216.52 C 353.63 220.08 358.09 223.61 360.27 228.71 C 362.41 233.85 361.91 239.57 361.80 245.01 C 361.46 254.73 359.90 265.01 353.98 273.03 C 348.71 280.10 339.61 283.16 331.05 283.04 C 323.06 283.28 314.37 281.30 308.85 275.13 C 301.91 267.98 299.99 257.67 299.41 248.09 C 299.08 241.63 298.39 234.87 300.75 228.69 M 328.28 233.21 C 326.82 235.01 325.76 237.66 327.10 239.83 C 328.45 242.43 332.32 242.30 334.27 240.46 C 335.55 238.33 335.39 235.26 333.41 233.60 C 331.85 232.72 329.96 232.89 328.28 233.21 M 326.99 248.12 C 326.42 249.66 326.39 251.34 326.16 252.95 C 327.72 253.70 329.23 254.68 330.96 255.02 C 333.74 255.08 336.06 251.78 334.86 249.20 C 334.10 247.30 331.98 246.63 330.42 245.55 C 329.26 246.38 328.04 247.15 326.99 248.12 M 327.68 260.60 C 326.66 262.05 326.45 263.85 325.99 265.51 C 327.28 266.42 328.58 267.33 329.88 268.24 C 331.41 267.90 332.94 267.56 334.48 267.22 C 334.69 265.33 335.53 263.24 334.44 261.48 C 333.28 258.99 329.40 258.40 327.68 260.60 Z" />
<path fill="#322e4f" opacity="1.00" d=" M 183.50 342.50 C 209.34 342.49 235.18 342.51 261.02 342.49 C 268.31 342.51 275.85 343.83 282.07 347.84 C 290.99 353.30 296.71 363.19 297.72 373.53 C 298.48 383.16 298.11 393.17 294.32 402.20 C 304.20 405.38 312.37 413.35 315.77 423.16 C 318.11 430.37 317.95 438.09 317.47 445.57 C 316.81 456.64 309.85 466.85 300.30 472.26 C 294.70 475.13 288.36 476.54 282.07 476.51 C 249.22 476.48 216.36 476.51 183.50 476.50 C 183.49 451.17 183.50 425.83 183.50 400.50 C 210.32 400.50 237.15 400.50 263.97 400.50 C 268.43 400.58 273.16 398.41 275.15 394.25 C 277.60 389.24 278.20 383.54 278.21 378.02 C 278.05 373.75 277.48 368.94 274.16 365.87 C 271.26 362.91 266.92 362.46 263.00 362.48 C 236.50 362.52 210.00 362.49 183.50 362.50 C 183.49 355.83 183.49 349.17 183.50 342.50 M 203.27 420.25 C 203.22 432.42 203.21 444.58 203.26 456.75 C 228.51 456.77 253.76 456.73 279.01 456.77 C 283.05 456.75 287.39 457.09 291.03 454.99 C 294.81 452.70 297.53 448.59 297.80 444.14 C 298.11 439.35 298.37 434.41 297.11 429.73 C 295.32 423.79 289.13 420.07 283.08 420.26 C 256.48 420.23 229.87 420.25 203.27 420.25 Z" />
<path fill="#322e4f" opacity="1.00" d=" M 30.51 342.50 C 60.67 342.49 90.83 342.51 121.00 342.49 C 129.37 342.57 138.26 342.16 145.93 346.10 C 155.62 350.71 162.60 360.46 164.13 371.04 C 164.79 374.99 164.75 379.00 164.76 383.00 C 164.73 402.02 164.75 421.05 164.75 440.07 C 164.76 447.64 163.33 455.53 158.83 461.78 C 152.62 470.69 142.03 476.79 131.03 476.50 C 97.52 476.50 64.02 476.50 30.51 476.50 C 30.50 451.17 30.51 425.83 30.51 400.50 C 37.10 400.50 43.68 400.50 50.27 400.50 C 50.22 419.25 50.20 438.00 50.24 456.75 C 77.18 456.75 104.12 456.75 131.05 456.75 C 138.44 457.13 144.99 450.39 144.92 443.09 C 145.05 421.03 145.01 398.97 144.94 376.91 C 145.21 370.70 140.93 364.84 135.05 363.01 C 131.76 362.25 128.35 362.53 125.01 362.49 C 93.51 362.52 62.01 362.50 30.51 362.50 C 30.51 355.83 30.51 349.17 30.51 342.50 Z" />
<path fill="#322e4f" opacity="1.00" d=" M 336.49 342.50 C 381.33 342.50 426.17 342.50 471.01 342.50 C 471.03 349.17 471.04 355.83 471.02 362.50 C 426.18 362.50 381.33 362.50 336.49 362.50 C 336.49 355.83 336.49 349.17 336.49 342.50 Z" />
<path fill="#322e4f" opacity="1.00" d=" M 336.49 400.50 C 374.67 400.50 412.85 400.50 451.02 400.50 C 451.03 407.08 451.01 413.66 451.02 420.25 C 419.44 420.25 387.86 420.25 356.29 420.25 C 356.24 432.42 356.24 444.58 356.27 456.75 C 394.44 456.75 432.60 456.75 470.77 456.75 C 470.77 463.33 470.74 469.92 470.69 476.50 C 425.96 476.50 381.22 476.50 336.49 476.50 C 336.49 451.17 336.49 425.83 336.49 400.50 Z" />
</g>
</svg>
